<svg xmlns="http://www.w3.org/2000/svg" version="1.1" xmlns:xlink="http://www.w3.org/1999/xlink" xmlns:svgjs="http://svgjs.dev/svgjs" width="1000" height="585" viewBox="0 0 1000 585"><g transform="matrix(1,0,0,1,-0.6060591925666472,0.0022014353014014887)"><svg viewBox="0 0 396 232" data-background-color="#c9efc7" preserveAspectRatio="xMidYMid meet" height="585" width="1000" xmlns="http://www.w3.org/2000/svg" xmlns:xlink="http://www.w3.org/1999/xlink"><defs></defs><g id="tight-bounds" transform="matrix(1,0,0,1,0.23999944025638342,-0.0008730478460279301)"><svg viewBox="0 0 395.52 232.00174609569206" height="232.00174609569206" width="395.52"><g><svg viewBox="0 0 395.52 232.00174609569206" height="232.00174609569206" width="395.52"><g transform="matrix(1,0,0,1,0,166.34157452138183)"><svg viewBox="0 0 395.52 65.66017157431021" height="65.66017157431021" width="395.52"><g><svg viewBox="0 0 395.52 65.66017157431021" height="65.66017157431021" width="395.52"><g><svg viewBox="0 0 395.52 65.66017157431021" height="65.66017157431021" width="395.52"><g transform="matrix(1,0,0,1,0,0)"><svg width="395.52" viewBox="0 -35.79999923706055 215.63999938964844 35.79999923706055" height="65.66017157431021" data-palette-color="#454545"><path d="M10.75-2.15L34.2-2.15 34.2 0 0 0 0-2.15 4.85-2.15 4.85-34.95 16.85-34.95Q24.8-34.95 28.45-31.9 32.1-28.85 32.1-22.5 32.1-16.15 28.38-13.2 24.65-10.25 16.95-10.25L16.95-10.25 10.75-10.25 10.75-2.15ZM17.6-15.6Q22.5-15.6 24.28-17.48 26.05-19.35 26.05-22.98 26.05-26.6 23.8-28.1 21.55-29.6 16.75-29.6L16.75-29.6 10.75-29.6 10.75-15.6 17.6-15.6ZM73.05 0L73.05-2.15 68.2-2.15 68.2-34.95 62.3-34.95 62.3-19.8 44.95-19.8 44.95-34.95 39.05-34.95 39.05 0 44.95 0 44.95-14.3 62.3-14.3 62.3 0 73.05 0ZM34.2-2.15L39.05-2.15 39.05 0 34.2 0 34.2-2.15ZM73.05-2.15L77.9-2.15 77.9-34.95 102.45-34.95 102.45-29.4 83.8-29.4 83.8-20.15 100.55-20.15 100.55-14.9 83.8-14.9 83.8-5.55 103.05-5.55 103.05-2.15 107.9-2.15 107.9 0 73.05 0 73.05-2.15ZM138.54-2.15L143.39-2.15 143.39 0 132.59 0 124.24-11.75 116.49-11.75 116.49 0 105.74 0 105.74-2.15 110.59-2.15 110.59-34.95 123.59-34.95Q131.59-34.95 135.04-32.25 138.49-29.55 138.49-23.6L138.49-23.6Q138.49-14.95 130.94-12.7L130.94-12.7 138.54-2.15ZM123.84-17.1Q128.84-17.1 130.64-18.65 132.44-20.2 132.44-23.63 132.44-27.05 130.59-28.33 128.74-29.6 123.99-29.6L123.99-29.6 116.49-29.6 116.49-17.1 123.84-17.1ZM172.69-2.15L184.14-2.15 184.14 0 142.14 0 142.14-2.15 153.59-2.15Q149.49-4.5 147.12-8.6 144.74-12.7 144.74-17.75L144.74-17.75Q144.74-25.45 150.04-30.63 155.34-35.8 163.14-35.8 170.94-35.8 176.24-30.63 181.54-25.45 181.54-17.75L181.54-17.75Q181.54-12.75 179.17-8.6 176.79-4.45 172.69-2.15L172.69-2.15ZM171.92-26.7Q168.34-30.4 163.14-30.4 157.94-30.4 154.37-26.7 150.79-23 150.79-17.73 150.79-12.45 154.37-8.75 157.94-5.05 163.14-5.05 168.34-5.05 171.92-8.75 175.49-12.45 175.49-17.73 175.49-23 171.92-26.7ZM209.39-2.15L215.64-2.15 215.64 0 184.14 0 184.14-2.15 190.54-2.15Q188.14-3.4 186.14-5.25L186.14-5.25 189.84-9.7Q195.14-5.1 200.84-5.1L200.84-5.1Q203.69-5.1 205.36-6.33 207.04-7.55 207.04-9.58 207.04-11.6 205.46-12.73 203.89-13.85 200.04-14.78 196.19-15.7 194.19-16.48 192.19-17.25 190.64-18.5L190.64-18.5Q187.54-20.85 187.54-25.7 187.54-30.55 191.06-33.18 194.59-35.8 199.79-35.8L199.79-35.8Q203.14-35.8 206.44-34.7 209.74-33.6 212.14-31.6L212.14-31.6 208.99-27.15Q207.44-28.55 204.79-29.45 202.14-30.35 199.56-30.35 196.99-30.35 195.34-29.3 193.69-28.25 193.69-26.13 193.69-24 195.34-22.88 196.99-21.75 202.36-20.45 207.74-19.15 210.46-16.8 213.19-14.45 213.19-10.2L213.19-10.2Q213.19-5.05 209.39-2.15L209.39-2.15Z" opacity="1" transform="matrix(1,0,0,1,0,0)" fill="#454545" class="undefined-text-0" data-fill-palette-color="primary" id="text-0"></path></svg></g></svg></g></svg></g></svg></g><g transform="matrix(1,0,0,1,122.33960807159751,0)"><svg viewBox="0 0 150.84078385680496 150.84078385680496" height="150.84078385680496" width="150.84078385680496"><g><svg></svg></g><g id="icon-0"><svg viewBox="0 0 150.84078385680496 150.84078385680496" height="150.84078385680496" width="150.84078385680496"><g><rect width="137.15337939572453" height="137.15337939572453" x="6.843702230540217" y="6.843702230540217" fill="#454545" data-fill-palette-color="accent"></rect><rect width="137.15337939572453" height="137.15337939572453" x="-7.993605777301127e-15" y="13.68740446108044" fill="#454545" opacity="0.5" data-fill-palette-color="accent"></rect></g><g transform="matrix(1,0,0,1,19.5551855460442,19.553434944400642)"><svg viewBox="0 0 111.73041276471656 111.73391396800368" height="111.73391396800368" width="111.73041276471656"><g><svg xmlns="http://www.w3.org/2000/svg" xmlns:xlink="http://www.w3.org/1999/xlink" version="1.1" x="0" y="0" viewBox="18.350997924804688 18.347999572753906 63.30200958251953 63.303993225097656" enable-background="new 0 0 100 100" xml:space="preserve" height="111.73391396800368" width="111.73041276471656" class="icon-x-0" data-fill-palette-color="background" id="x-0"><g fill="#c9efc7" data-fill-palette-color="background"><path fill="#c9efc7" d="M80.951 48.597c-4.329-3.261-9.009-4.911-13.907-4.911-0.107 0-0.213 0-0.32 0.002-0.104-0.002-0.212-0.002-0.318-0.002-0.431 0-0.857 0.029-1.283 0.054 0.399-0.354 0.792-0.717 1.168-1.103 3.598-3.496 5.814-8.047 6.587-13.531 0.078-0.548-0.105-1.098-0.496-1.487-0.391-0.39-0.941-0.573-1.488-0.497-5.482 0.773-10.035 2.99-13.529 6.589-0.384 0.373-0.744 0.764-1.097 1.161 0.032-0.53 0.054-1.062 0.046-1.597 0.073-5.016-1.579-9.801-4.91-14.227-0.331-0.44-0.851-0.7-1.401-0.7-0.552 0-1.072 0.26-1.404 0.7-3.33 4.425-4.981 9.211-4.909 14.227-0.008 0.535 0.014 1.066 0.045 1.597-0.352-0.396-0.713-0.788-1.097-1.161-3.493-3.599-8.045-5.816-13.529-6.589-0.549-0.076-1.098 0.107-1.487 0.497-0.39 0.391-0.574 0.941-0.498 1.487 0.774 5.484 2.99 10.036 6.588 13.531 0.375 0.386 0.769 0.748 1.168 1.103-0.427-0.024-0.854-0.054-1.284-0.054-0.107 0-0.213 0-0.319 0.002-0.106-0.002-0.212-0.002-0.321-0.002-4.898 0-9.577 1.65-13.905 4.911-0.44 0.332-0.7 0.851-0.7 1.402 0 0.553 0.259 1.071 0.7 1.403 4.329 3.26 9.008 4.91 13.908 4.91 0.106 0 0.212 0 0.318-0.002 0.106 0.002 0.223-0.006 0.318 0.002 0.432 0 0.859-0.029 1.288-0.053-0.399 0.354-0.793 0.717-1.168 1.104-3.599 3.494-5.816 8.047-6.59 13.529-0.077 0.547 0.107 1.096 0.498 1.486 0.331 0.332 0.779 0.516 1.242 0.516 0.081 0 0.163-0.006 0.246-0.018 5.484-0.773 10.036-2.99 13.529-6.588 0.384-0.373 0.745-0.766 1.097-1.162-0.031 0.531-0.053 1.062-0.045 1.598-0.073 5.016 1.579 9.801 4.909 14.227 0.332 0.441 0.853 0.701 1.404 0.701 0.551 0 1.07-0.26 1.402-0.701 3.33-4.426 4.982-9.211 4.909-14.227 0.008-0.535-0.014-1.066-0.046-1.596 0.353 0.396 0.712 0.789 1.097 1.16 3.494 3.598 8.046 5.814 13.529 6.588 0.082 0.012 0.165 0.018 0.246 0.018 0.461 0 0.91-0.184 1.242-0.516 0.391-0.391 0.574-0.939 0.496-1.486-0.772-5.484-2.99-10.037-6.588-13.529-0.375-0.387-0.77-0.75-1.169-1.104 0.428 0.023 0.855 0.053 1.286 0.053 0.107 0 0.213 0 0.317-0.002 0.106 0.002 0.213 0.002 0.318 0.002 0.001 0 0 0 0.001 0 4.899 0 9.579-1.65 13.908-4.91 0.44-0.332 0.7-0.85 0.7-1.403C81.651 49.448 81.392 48.929 80.951 48.597zM48.784 49.509l1.217-1.215 1.214 1.215-1.214 1.215L48.784 49.509zM59.828 36.215c0.013-0.014 0.026-0.027 0.039-0.04 2.41-2.489 5.449-4.198 9.058-5.099-0.901 3.607-2.61 6.646-5.099 9.057-0.014 0.012-0.027 0.027-0.04 0.04-2.411 2.489-5.449 4.198-9.057 5.099C55.63 41.665 57.339 38.624 59.828 36.215zM47.2 33.247c-0.054-3.464 0.886-6.822 2.801-10.009 1.914 3.187 2.854 6.545 2.799 10.008 0 0.02 0 0.039 0 0.058 0.056 3.463-0.885 6.82-2.799 10.008-1.915-3.188-2.854-6.544-2.801-10.009C47.2 33.285 47.2 33.266 47.2 33.247zM31.077 31.076c3.608 0.9 6.647 2.609 9.056 5.099 0.014 0.013 0.027 0.026 0.04 0.04 2.489 2.409 4.199 5.448 5.098 9.057-3.606-0.901-6.646-2.61-9.057-5.101-0.013-0.013-0.027-0.026-0.039-0.039C33.686 37.722 31.977 34.684 31.077 31.076zM33.303 52.799c-0.009 0-0.018 0-0.027 0s-0.019 0-0.029 0c-0.096 0.002-0.192 0.004-0.289 0.004-3.361 0-6.62-0.941-9.72-2.803 3.099-1.861 6.358-2.801 9.717-2.801 0.098 0 0.195 0 0.292 0.002 0.019 0.001 0.038 0.001 0.056 0 0.098-0.002 0.195-0.002 0.292-0.002 3.359 0 6.619 0.939 9.717 2.801-3.099 1.862-6.359 2.803-9.719 2.803C33.496 52.803 33.399 52.801 33.303 52.799zM40.174 63.785c-0.014 0.014-0.027 0.025-0.041 0.039-2.409 2.488-5.448 4.197-9.056 5.1 0.899-3.607 2.608-6.646 5.098-9.059 0.013-0.012 0.026-0.025 0.041-0.039 2.409-2.488 5.448-4.197 9.056-5.098C44.371 58.336 42.662 61.375 40.174 63.785zM52.8 66.752c0.056 3.465-0.885 6.822-2.799 10.01-1.915-3.188-2.854-6.545-2.801-10.01 0-0.02 0-0.037 0-0.055-0.054-3.465 0.886-6.822 2.801-10.01 1.914 3.188 2.854 6.545 2.799 10.01C52.8 66.715 52.8 66.732 52.8 66.752zM68.924 68.924c-3.607-0.902-6.646-2.611-9.058-5.098-0.013-0.014-0.025-0.027-0.038-0.041-2.489-2.41-4.198-5.449-5.099-9.057 3.607 0.9 6.646 2.609 9.056 5.098 0.014 0.014 0.026 0.027 0.04 0.039C66.314 62.277 68.022 65.314 68.924 68.924zM67.042 52.803c-0.096 0-0.192-0.002-0.289-0.004-0.01 0-0.02 0-0.029 0-0.009 0-0.018 0-0.028 0-0.096 0.002-0.192 0.004-0.289 0.004-3.361 0-6.62-0.941-9.718-2.803 3.098-1.861 6.356-2.801 9.717-2.801 0.097 0 0.194 0 0.29 0.002 0.02 0.001 0.039 0.001 0.058 0 0.097-0.002 0.194-0.002 0.291-0.002 3.36 0 6.62 0.939 9.718 2.801C73.664 51.861 70.404 52.803 67.042 52.803z" data-fill-palette-color="background"></path><circle fill="#c9efc7" cx="66.725" cy="50" r="2.3" data-fill-palette-color="background"></circle><circle fill="#c9efc7" cx="33.276" cy="50" r="2.3" data-fill-palette-color="background"></circle><circle fill="#c9efc7" cx="50" cy="66.725" r="2.3" data-fill-palette-color="background"></circle><circle fill="#c9efc7" cx="50" cy="33.275" r="2.3" data-fill-palette-color="background"></circle><circle fill="#c9efc7" cx="61.827" cy="61.825" r="2.3" data-fill-palette-color="background"></circle><circle fill="#c9efc7" cx="38.174" cy="38.174" r="2.3" data-fill-palette-color="background"></circle><circle fill="#c9efc7" cx="38.174" cy="61.825" r="2.3" data-fill-palette-color="background"></circle><circle fill="#c9efc7" cx="61.827" cy="38.174" r="2.3" data-fill-palette-color="background"></circle></g></svg></g></svg></g></svg></g></svg></g><g></g></svg></g></svg><rect width="395.52" height="232.00174609569206" fill="none" stroke="none" visibility="hidden"></rect></g></svg></g></svg>